REM DIRINDEX 1\2\5,1\2\6,1\2\7,1\2\8,1\3\9,1\3\10,1\3\11,1\4\12,1\4\13,1\4\14,1\4\15,1\4\16
REM DIRNAME cjc034,folder01,folder02,folder03,folder04,folder05,folder06,folder07,folder08,folder09,folder10,folder11,folder12,folder13,folder14,folder15
TITLE ""
FILE "1200_sec03_0683_0691.mp3" MP3
  TRACK 01 AUDIO
    TITLE "0:"
    INDEX 01 00:00:00
  TRACK 02 AUDIO
    TITLE "12:cjc034_06389"
    INDEX 01 00:00:17
  TRACK 03 AUDIO
    TITLE "0:"
    INDEX 01 00:01:48
  TRACK 04 AUDIO
    TITLE "13:cjc034_06390"
    INDEX 01 00:02:06
  TRACK 05 AUDIO
    TITLE "0:"
    INDEX 01 00:03:19
  TRACK 06 AUDIO
    TITLE "14:cjc034_06391"
    INDEX 01 00:03:51
  TRACK 07 AUDIO
    TITLE "0:"
    INDEX 01 00:05:03
  TRACK 08 AUDIO
    TITLE "15:cjc034_06392"
    INDEX 01 00:05:38
  TRACK 09 AUDIO
    TITLE "0:"
    INDEX 01 00:09:40
  TRACK 10 AUDIO
    TITLE "12:cjc034_06393"
    INDEX 01 00:10:70
  TRACK 11 AUDIO
    TITLE "0:"
    INDEX 01 00:12:14
  TRACK 12 AUDIO
    TITLE "13:cjc034_06394"
    INDEX 01 00:12:46
  TRACK 13 AUDIO
    TITLE "0:"
    INDEX 01 00:13:61
  TRACK 14 AUDIO
    TITLE "14:cjc034_06395"
    INDEX 01 00:14:17
  TRACK 15 AUDIO
    TITLE "0:"
    INDEX 01 00:15:36
  TRACK 16 AUDIO
    TITLE "15:cjc034_06396"
    INDEX 01 00:15:72
  TRACK 17 AUDIO
    TITLE "0:"
    INDEX 01 00:18:60
  TRACK 18 AUDIO
    TITLE "12:cjc034_06397"
    INDEX 01 00:20:18
  TRACK 19 AUDIO
    TITLE "0:"
    INDEX 01 00:21:31
  TRACK 20 AUDIO
    TITLE "13:cjc034_06398"
    INDEX 01 00:21:64
  TRACK 21 AUDIO
    TITLE "0:"
    INDEX 01 00:22:70
  TRACK 22 AUDIO
    TITLE "14:cjc034_06399"
    INDEX 01 00:23:26
  TRACK 23 AUDIO
    TITLE "0:"
    INDEX 01 00:24:39
  TRACK 24 AUDIO
    TITLE "15:cjc034_06400"
    INDEX 01 00:24:71
  TRACK 25 AUDIO
    TITLE "0:"
    INDEX 01 00:29:25
  TRACK 26 AUDIO
    TITLE "12:cjc034_06401"
    INDEX 01 00:30:55
  TRACK 27 AUDIO
    TITLE "0:"
    INDEX 01 00:31:63
  TRACK 28 AUDIO
    TITLE "13:cjc034_06402"
    INDEX 01 00:32:21
  TRACK 29 AUDIO
    TITLE "0:"
    INDEX 01 00:33:28
  TRACK 30 AUDIO
    TITLE "14:cjc034_06403"
    INDEX 01 00:33:62
  TRACK 31 AUDIO
    TITLE "0:"
    INDEX 01 00:34:69
  TRACK 32 AUDIO
    TITLE "15:cjc034_06404"
    INDEX 01 00:35:27
  TRACK 33 AUDIO
    TITLE "0:"
    INDEX 01 00:39:21
  TRACK 34 AUDIO
    TITLE "12:cjc034_06405"
    INDEX 01 00:40:52
  TRACK 35 AUDIO
    TITLE "0:"
    INDEX 01 00:42:06
  TRACK 36 AUDIO
    TITLE "13:cjc034_06406"
    INDEX 01 00:42:37
  TRACK 37 AUDIO
    TITLE "0:"
    INDEX 01 00:43:58
  TRACK 38 AUDIO
    TITLE "14:cjc034_06407"
    INDEX 01 00:44:16
  TRACK 39 AUDIO
    TITLE "0:"
    INDEX 01 00:45:45
  TRACK 40 AUDIO
    TITLE "15:cjc034_06408"
    INDEX 01 00:46:02
  TRACK 41 AUDIO
    TITLE "0:"
    INDEX 01 00:49:69
  TRACK 42 AUDIO
    TITLE "12:cjc034_06409"
    INDEX 01 00:51:26
  TRACK 43 AUDIO
    TITLE "0:"
    INDEX 01 00:52:39
  TRACK 44 AUDIO
    TITLE "13:cjc034_06410"
    INDEX 01 00:52:73
  TRACK 45 AUDIO
    TITLE "0:"
    INDEX 01 00:53:72
  TRACK 46 AUDIO
    TITLE "14:cjc034_06411"
    INDEX 01 00:54:30
  TRACK 47 AUDIO
    TITLE "0:"
    INDEX 01 00:55:42
  TRACK 48 AUDIO
    TITLE "15:cjc034_06412"
    INDEX 01 00:56:02
  TRACK 49 AUDIO
    TITLE "0:"
    INDEX 01 00:59:57
  TRACK 50 AUDIO
    TITLE "12:cjc034_06413"
    INDEX 01 01:01:25
  TRACK 51 AUDIO
    TITLE "0:"
    INDEX 01 01:02:42
  TRACK 52 AUDIO
    TITLE "13:cjc034_06414"
    INDEX 01 01:03:00
  TRACK 53 AUDIO
    TITLE "0:"
    INDEX 01 01:06:47
  TRACK 54 AUDIO
    TITLE "14:cjc034_06415"
    INDEX 01 01:07:15
  TRACK 55 AUDIO
    TITLE "0:"
    INDEX 01 01:08:31
  TRACK 56 AUDIO
    TITLE "15:cjc034_06416"
    INDEX 01 01:08:62
  TRACK 57 AUDIO
    TITLE "0:"
    INDEX 01 01:12:58
  TRACK 58 AUDIO
    TITLE "16:cjc034_06417"
    INDEX 01 01:14:21
  TRACK 59 AUDIO
    TITLE "0:"
    INDEX 01 01:19:30
  TRACK 60 AUDIO
    TITLE "12:cjc034_06418"
    INDEX 01 01:20:36
  TRACK 61 AUDIO
    TITLE "0:"
    INDEX 01 01:21:57
  TRACK 62 AUDIO
    TITLE "13:cjc034_06419"
    INDEX 01 01:22:17
  TRACK 63 AUDIO
    TITLE "0:"
    INDEX 01 01:24:49
  TRACK 64 AUDIO
    TITLE "14:cjc034_06420"
    INDEX 01 01:25:06
  TRACK 65 AUDIO
    TITLE "0:"
    INDEX 01 01:26:30
  TRACK 66 AUDIO
    TITLE "15:cjc034_06421"
    INDEX 01 01:26:64
  TRACK 67 AUDIO
    TITLE "0:"
    INDEX 01 01:30:15
  TRACK 68 AUDIO
    TITLE "12:cjc034_06422"
    INDEX 01 01:31:47
  TRACK 69 AUDIO
    TITLE "0:"
    INDEX 01 01:32:51
  TRACK 70 AUDIO
    TITLE "13:cjc034_06423"
    INDEX 01 01:33:05
  TRACK 71 AUDIO
    TITLE "0:"
    INDEX 01 01:33:72
  TRACK 72 AUDIO
    TITLE "14:cjc034_06424"
    INDEX 01 01:34:30
  TRACK 73 AUDIO
    TITLE "0:"
    INDEX 01 01:35:33
  TRACK 74 AUDIO
    TITLE "15:cjc034_06425"
    INDEX 01 01:35:67
  TRACK 75 AUDIO
    TITLE "0:"
    INDEX 01 01:39:19
